<svg width="198" height="33" viewBox="0 0 198 33" fill="none" xmlns="http://www.w3.org/2000/svg">
<g clip-path="url(#clip0_1565_866)">
<path d="M82.1549 7.25537C82.1549 8.80331 82.1764 10.3534 82.1549 11.9013C82.1398 12.9793 81.9975 13.7231 80.7212 13.5894C79.3522 13.4471 79.5743 12.3347 79.5743 11.2201C79.5743 9.57512 79.5743 7.93232 79.5743 6.28737C79.5743 5.97046 79.7618 3.47608 79.2617 3.62484C78.9642 3.71539 78.0996 6.75089 77.9487 7.1562C77.4701 8.4519 77.0648 9.77131 76.5797 11.067C76.1399 12.242 76.0408 13.611 74.5661 13.5765C73.3523 13.5484 73.0893 12.9469 72.7185 11.9013C72.2464 10.5647 71.7829 9.22371 71.3452 7.87627C71.1059 7.13895 70.8666 6.39948 70.6187 5.66432C70.4807 5.25254 70.347 4.18537 69.9891 3.91589C69.558 3.59034 69.6916 3.56232 69.5493 4.21555C69.3898 4.94425 69.5407 5.89284 69.5407 6.63878C69.5407 8.14791 69.5407 9.65704 69.5407 11.164C69.5407 12.2829 69.7714 13.5722 68.3032 13.6023C66.7402 13.6347 66.9946 12.2161 66.9924 11.0627C66.9924 9.39187 66.9924 7.7232 66.9924 6.05238C66.9924 5.16846 66.9924 4.28454 66.9946 3.40063C66.9946 2.7711 66.8092 1.55733 67.1886 1.00111C67.706 0.246546 70.416 0.337094 71.1425 0.85451C72.1623 1.57889 72.5353 3.95469 72.9298 5.08223C73.3653 6.33049 73.7296 8.42603 74.6049 9.42852C75.6053 8.22768 76.03 6.03729 76.5646 4.58637C76.9893 3.43296 77.3278 1.11537 78.6214 0.615205C79.6562 0.216364 81.7539 0.220675 82.1053 1.4366C82.3338 2.22566 82.1549 3.2799 82.1549 4.09051C82.1549 5.14475 82.1549 6.19898 82.1549 7.25106V7.25537Z" fill="#818387"/>
<path d="M148.324 3.25162C147.485 5.19409 146.812 7.20123 146.114 9.19759C145.599 10.6701 145.236 13.8824 143.137 13.6064C141.416 13.38 141.112 10.5968 140.651 9.22777C140.302 8.18863 139.955 7.14733 139.61 6.10603C139.336 5.28679 139.137 3.93504 138.596 3.28181C137.995 3.8639 138.383 6.02195 138.383 6.81317C138.383 8.39344 138.383 9.97371 138.383 11.5561C138.383 12.4659 138.588 13.3046 137.594 13.5676C135.895 14.0203 135.869 12.522 135.869 11.3061C135.869 8.44734 135.865 5.58862 135.869 2.7299C135.869 1.6541 135.731 0.740002 136.982 0.563218C138.04 0.412305 139.668 0.330381 140.343 1.27466C141.052 2.26638 141.293 3.85096 141.724 4.98712C141.947 5.57353 142.169 6.15562 142.369 6.75065C142.52 7.19476 142.837 8.90008 143.216 9.12214C143.954 9.55116 144.161 7.80488 144.398 7.20339C144.851 6.04782 145.303 4.90951 145.726 3.74101C146.034 2.88728 146.353 1.20568 147.209 0.720599C147.778 0.39937 150.156 0.298043 150.665 0.768028C151.307 1.3609 150.988 3.08562 150.988 3.8445C150.988 5.37518 150.988 6.90372 150.988 8.4344C150.988 9.29461 150.988 10.1548 150.988 11.0172C150.988 11.5799 151.185 12.4659 150.926 12.9747C150.574 13.6603 149.307 13.8996 148.688 13.311C148.194 12.8411 148.449 11.7717 148.453 11.1573C148.457 10.2561 148.46 9.35497 148.46 8.45596C148.46 6.7334 148.455 5.01084 148.455 3.28827C148.412 3.27749 148.369 3.26456 148.324 3.25378V3.25162Z" fill="#818387"/>
<path d="M4.19973 13.6861C3.32874 13.8543 1.39706 13.505 0.827902 12.7332C0.586441 12.4077 0.45062 11.3965 0.640339 11.0451C0.927073 10.5148 0.961568 10.5816 1.56306 10.7843C2.73587 11.1809 3.54865 11.7523 4.88315 11.4483C5.8145 11.237 6.50654 10.5191 6.1465 9.50797C5.78647 8.4947 4.42825 8.14976 3.56158 7.74013C2.52675 7.25075 1.53072 6.61691 1.03271 5.53681C-0.0624839 3.15238 1.576 0.96199 3.86772 0.382054C4.90471 0.119034 6.71782 0.16862 7.64054 0.817545C8.1364 1.1668 8.68184 2.83547 7.90787 3.14807C7.50041 3.31192 6.57984 2.60694 6.16375 2.50561C5.62262 2.37195 4.78829 2.29002 4.26225 2.52933C3.39342 2.92386 3.22957 3.9824 3.86987 4.69169C4.69558 5.60364 6.30604 5.83863 7.31716 6.5199C8.26791 7.16235 8.96211 8.24462 9.04187 9.4088C9.20788 11.8277 6.60787 14.182 4.19757 13.6883L4.19973 13.6861Z" fill="#818387"/>
<path d="M28.4881 8.2985C28.4881 9.59851 28.874 11.5819 28.4385 12.7935C28.1237 13.6688 26.7677 13.7206 26.0261 13.2635C25.0882 12.6879 24.545 10.9093 24.0513 9.97579C23.4433 8.82454 22.941 7.35853 22.0937 6.36466C21.6323 7.44261 21.9708 9.28374 21.9708 10.4587C21.9708 11.1723 22.305 12.8819 21.6755 13.4188C21.3391 13.7055 20.6471 13.6602 20.3194 13.3886C19.7998 12.9574 19.9874 12.1446 19.9874 11.541C19.9852 10.1483 19.9831 8.75555 19.9831 7.36499C19.9831 6.39915 19.5821 4.51274 20.1857 3.6741C20.6794 2.98852 22.2231 3.10063 22.8202 3.55983C23.5834 4.14624 23.9478 5.429 24.3746 6.24608C25.0128 7.46632 25.5863 8.97976 26.5133 9.9995C26.7871 8.55936 26.6082 6.964 26.606 5.50014C26.606 4.65503 26.2848 3.46282 27.298 3.22567C28.0806 3.04242 28.3307 3.38305 28.4816 4.01473C28.7878 5.28455 28.4924 6.98771 28.4903 8.2985H28.4881Z" fill="#818387"/>
<path d="M121.653 8.5184C121.653 7.71856 121.653 6.91657 121.653 6.11673C121.653 5.50445 121.461 4.53214 121.677 3.95436C122.007 3.07907 123.373 2.99499 124.137 3.38736C125.04 3.85088 125.54 5.37295 125.984 6.22237C126.631 7.46201 127.207 8.76849 128 9.92189C128.267 8.60032 128.14 7.19468 128.14 5.8494C128.14 4.96117 127.778 3.63098 128.748 3.24507C130.255 2.64573 130.055 4.4416 130.055 5.28887C130.055 6.78075 130.055 8.27263 130.055 9.76235C130.055 10.5924 130.462 12.6469 129.807 13.2851C129.184 13.8931 127.789 13.4339 127.278 12.9164C126.502 12.1317 126.002 10.5859 125.488 9.60713C124.969 8.6111 124.525 7.13216 123.725 6.33016C123.141 7.15156 123.546 9.31824 123.546 10.3207C123.546 11.1098 123.895 12.8086 123.294 13.3864C122.602 14.0526 121.834 13.4231 121.655 12.772C121.321 11.5625 121.655 9.77529 121.655 8.51624L121.653 8.5184Z" fill="#818387"/>
<path d="M93.5941 8.18648C93.4022 10.9956 92.266 13.4986 89.0559 13.6926C85.7574 13.891 83.9917 11.7502 83.9464 8.59611C83.9033 5.58 85.6927 3.01233 88.9158 3.07485C92.2466 3.13953 93.2125 5.23075 93.5962 8.18864L93.5941 8.18648ZM86.1196 8.44735C86.2381 10.1958 86.7426 12.0499 88.8489 11.9528C90.9574 11.8558 91.4533 9.65896 91.3627 7.92993C91.2808 6.38846 90.6707 4.90952 88.9222 4.83622C86.9 4.74998 86.0225 6.65795 86.1196 8.44735Z" fill="#818387"/>
<path d="M157.56 13.6947C151.12 13.8564 151.247 3.26448 157.476 3.08338C160.515 2.99499 162.417 4.99351 162.51 8.01392C162.598 10.9136 160.789 13.9082 157.56 13.6947ZM160.308 8.29635C160.024 6.66864 159.86 4.95039 157.833 4.82535C156.014 4.71324 155.072 6.28921 154.951 7.92553C154.819 9.70846 155.352 11.9592 157.536 11.9657C159.638 11.9722 160.185 10.0362 160.308 8.29635Z" fill="#818387"/>
<path d="M180.904 8.24035C181.281 11.2715 179.05 13.6452 176.079 13.7012C173.039 13.7594 171.437 11.7307 171.325 8.85909C171.209 5.91413 172.67 3.271 175.863 3.12224C178.933 2.97995 181.249 5.01512 180.904 8.2425V8.24035ZM178.702 8.37186C178.702 6.67085 178.25 4.85774 176.215 4.81894C174.345 4.78444 173.518 6.49622 173.451 8.15627C173.388 9.74947 173.878 11.6984 175.701 11.9356C177.851 12.2158 178.817 10.2367 178.702 8.3697V8.37186Z" fill="#818387"/>
<path d="M40.0825 8.41286C40.0825 7.51385 40.0933 6.61269 40.0911 5.71368C40.089 5.14236 39.8605 4.07735 40.2356 3.59443C40.8608 2.79459 43.1913 3.15894 44.1054 3.31632C45.5132 3.55778 46.7054 4.10322 46.8068 5.67703C46.852 6.37554 46.6817 6.8175 46.3152 7.39959C45.9056 8.04636 45.7116 7.77256 46.3928 8.3719C48.6759 10.379 46.796 13.0696 44.2412 13.3844C43.2926 13.5008 41.2014 13.9578 40.393 13.3154C39.5328 12.632 40.0825 9.4326 40.0825 8.40855V8.41286ZM43.2517 11.8968C43.2517 11.8968 43.2517 11.9054 43.2517 11.9097C44.1507 11.8451 45.33 11.6295 45.3149 10.4588C45.3019 9.59861 44.5948 9.19545 43.851 9.08119C42.7731 8.91519 42.1759 8.86776 42.1004 9.97373C42.0185 11.1659 41.8935 11.8968 43.2517 11.8968ZM43.0641 7.4772C45.1489 7.35216 45.2955 4.98714 43.1547 4.86641C42.0918 4.80604 42.0875 5.16392 42.081 6.16426C42.0746 7.13657 42.0207 7.47505 43.062 7.47505L43.0641 7.4772Z" fill="#818387"/>
<path d="M95.1097 8.35918C95.1097 7.48173 95.1097 6.60644 95.1097 5.72899C95.1097 5.20079 94.9049 4.10991 95.2067 3.65286C95.7392 2.84655 97.576 3.22815 98.4211 3.24108C101.554 3.29282 103.647 5.19001 103.606 8.38937C103.569 11.3408 101.965 13.1022 99.055 13.3932C98.1516 13.4838 95.8039 13.9904 95.2196 13.0935C94.9156 12.6279 95.1097 11.5607 95.1097 11.0153C95.1097 10.1292 95.1097 9.2431 95.1097 8.35703V8.35918ZM97.1642 8.35703C97.1642 9.02105 96.8689 10.7695 97.1858 11.3602C97.5049 11.9552 97.9727 11.9143 98.6928 11.828C100.402 11.6254 101.269 10.4698 101.379 8.79899C101.504 6.91473 100.812 5.1857 98.751 4.9658C98.1581 4.90328 97.4725 4.79764 97.1837 5.34739C96.8646 5.9532 97.1664 7.65636 97.1642 8.35487V8.35703Z" fill="#818387"/>
<path d="M112.758 8.41066C112.758 7.2551 112.133 3.89836 113.327 3.30333C113.87 3.03169 115.132 3.22788 115.744 3.23219C116.718 3.23866 117.9 3.33567 118.743 3.90483C119.51 4.42656 119.827 5.29754 119.788 6.19224C119.741 7.29175 119.217 7.5483 118.663 8.36538C118.536 8.55295 118.199 8.54648 118.201 8.83106C118.204 9.08977 118.773 9.5576 118.928 9.82062C119.364 10.5515 120.135 11.8558 120.235 12.688C120.321 13.4016 119.941 13.6064 119.247 13.5977C118.376 13.587 118.156 13.2593 117.837 12.5478C117.587 11.9894 115.886 7.68628 114.925 9.72791C114.409 10.8231 115.914 13.8586 113.657 13.5439C112.057 13.3218 112.754 9.6697 112.754 8.41281L112.758 8.41066ZM115.759 7.73371C116.802 7.73371 117.609 7.41894 117.583 6.24182C117.561 5.34066 117.087 5.04746 116.25 4.93966C114.851 4.75857 114.907 5.19621 114.909 6.4337C114.909 7.28312 114.78 7.75742 115.759 7.73155V7.73371Z" fill="#818387"/>
<path d="M182.486 8.46225C182.486 7.33903 181.876 3.86803 183.044 3.28378C183.629 2.99274 185.427 3.1803 186.101 3.22126C186.897 3.27085 187.867 3.47566 188.523 3.94996C189.816 4.88346 189.855 6.97037 188.751 8.07204C188.037 8.78348 187.772 8.52046 188.385 9.4281C188.906 10.2042 189.24 11.1226 189.624 11.9742C189.904 12.5973 190.232 13.244 189.439 13.576C188.911 13.7959 188.109 13.4596 187.768 13.0737C187.19 12.4183 186.595 8.36739 184.881 9.29659C183.568 10.008 185.75 13.1449 183.777 13.5308C181.695 13.9382 182.488 9.66093 182.488 8.46225H182.486ZM184.586 6.32791C184.586 7.52875 184.56 7.88016 185.851 7.71631C186.69 7.61067 187.408 7.20968 187.365 6.23305C187.324 5.31248 186.602 5.00419 185.802 4.92658C184.569 4.808 184.584 5.16157 184.586 6.32576V6.32791Z" fill="#818387"/>
<path d="M14.2333 3.22579C15.1107 3.22579 15.4406 3.21932 15.8265 4.04719C16.2275 4.90739 16.5035 5.87323 16.8096 6.77224C17.4003 8.50127 18.0816 10.2303 18.6184 11.9744C18.7822 12.5048 19.0841 13.1429 18.5688 13.5224C18.323 13.7035 17.4176 13.6431 17.1481 13.5051C16.5207 13.1839 16.5703 12.4078 16.2986 11.858C15.9257 11.1013 15.6066 11.2026 14.7205 11.1961C14.1083 11.1918 12.6724 10.9137 12.2154 11.4311C11.8273 11.8709 11.9718 12.6923 11.5557 13.1559C11.215 13.5353 10.4777 13.8177 10.0013 13.5267C9.33293 13.1192 9.8137 12.3603 10.0142 11.7782C10.6782 9.85734 11.3638 7.9429 12.0343 6.02199C12.2714 5.34719 12.418 4.31021 12.8126 3.71949C13.1963 3.14602 13.5175 3.21717 14.2311 3.21717C14.2311 3.21932 14.2311 3.22148 14.2311 3.22363L14.2333 3.22579ZM14.1277 9.5706C15.2078 9.5706 15.5678 9.62019 15.2379 8.50559C14.9685 7.5958 14.7335 6.42514 14.1902 5.65118C13.5995 6.26992 13.2092 7.75965 12.9893 8.60691C12.7328 9.60078 13.1726 9.5706 14.1277 9.5706Z" fill="#818387"/>
<path d="M34.2918 3.22139C35.0614 3.22139 35.3762 3.17828 35.7643 3.84229C36.2019 4.59039 36.3464 5.65972 36.6288 6.4768C37.2066 8.15625 37.793 9.84216 38.3945 11.5151C38.7631 12.5392 39.2547 14.279 37.3144 13.5309C36.6008 13.2571 36.5792 12.5478 36.286 11.9334C35.8483 11.0171 35.4301 11.2025 34.4298 11.1982C33.8024 11.1982 32.7525 10.9783 32.2846 11.403C31.778 11.8644 31.9763 12.8712 31.4201 13.3261C31.0234 13.6516 29.9929 13.7982 29.6846 13.2679C29.3979 12.7742 30.0705 11.541 30.2344 11.071C30.8057 9.42823 31.3921 7.7919 31.9958 6.15988C32.5606 4.63351 32.4463 3.21924 34.2853 3.21924L34.2918 3.22139ZM34.184 9.57267C34.184 9.57267 34.184 9.57052 34.184 9.56836C35.2727 9.56836 35.5357 9.64382 35.2318 8.57018C35.1347 8.22523 34.5656 5.73948 34.143 5.7826C33.8175 5.81494 33.2203 8.09372 33.1276 8.39124C32.7482 9.62441 32.9681 9.57267 34.184 9.57267Z" fill="#818387"/>
<path d="M48.9476 8.38685C48.9476 7.09978 48.5789 5.17672 48.9626 3.95217C49.2257 3.11352 49.7237 3.24719 50.5731 3.24072C51.5044 3.2321 55.7947 2.5034 54.9065 4.5127C54.5723 5.26942 53.3305 4.95035 52.5975 4.95035C51.1962 4.95035 50.8641 4.90938 50.9504 6.40989C51.0172 7.56976 51.401 7.39514 52.5501 7.40591C53.3736 7.41238 54.361 7.12349 54.3653 8.19929C54.3696 9.12417 53.8501 9.01421 53.0524 9.02284C52.1038 9.03577 51.3514 8.73395 50.9612 9.55535C50.8361 9.81837 50.8124 11.3081 50.9763 11.5625C51.1983 11.9074 51.4182 11.8255 51.8041 11.8578C52.4423 11.9139 54.4494 11.4719 54.8698 12.0389C56.3294 14.0137 51.2867 13.4963 50.5494 13.4942C49.6418 13.492 49.1481 13.5567 48.9497 12.6404C48.6716 11.3555 48.9476 9.70195 48.9476 8.38254V8.38685Z" fill="#818387"/>
<path d="M105.135 8.37186C105.135 7.0891 105.042 5.76969 105.135 4.49125C105.236 3.13303 105.784 3.24729 107.027 3.24298C107.732 3.24298 110.169 2.83983 110.772 3.29257C111.119 3.55343 111.221 4.53221 110.867 4.84266C110.171 5.45493 108.517 4.59904 107.735 4.95692C107.133 5.23072 106.767 6.5221 107.245 7.19905C107.694 7.83504 109.265 7.16456 109.906 7.41896C110.412 7.61945 110.874 8.30719 110.33 8.88066C109.826 9.41316 108.429 8.81813 107.771 9.02726C107.064 9.25147 107.198 9.60073 107.198 10.3402C107.198 11.5755 107.118 11.8429 108.373 11.8644C108.903 11.873 110.578 11.5691 110.99 12.039C111.492 12.6147 110.919 13.3455 110.419 13.49C109.39 13.7875 107.748 13.5115 106.7 13.4986C105.755 13.4878 105.298 13.5331 105.137 12.5198C104.928 11.2047 105.135 9.70205 105.135 8.36971V8.37186Z" fill="#818387"/>
<path d="M193.479 13.6906C192.744 13.8459 191.336 13.3672 190.901 12.7162C190.463 12.0629 190.668 11.2717 191.478 11.3429C192.436 11.4248 193.024 12.1944 194.113 11.9314C194.908 11.7374 195.506 11.054 195.107 10.1873C194.764 9.4392 193.619 9.23439 192.949 8.88945C191.957 8.38281 191.209 7.69723 191.034 6.56539C190.678 4.29091 192.567 2.97582 194.669 3.11164C195.445 3.16122 196.45 3.27117 196.773 4.09257C197.079 4.86869 196.816 5.26969 196.154 5.25676C195.24 5.23735 194.41 4.2327 193.453 5.04332C192.752 5.63619 193.175 6.38429 193.772 6.81978C195.264 7.9042 197.476 8.13272 197.452 10.4848C197.431 12.6321 195.365 13.7057 193.479 13.6928V13.6906Z" fill="#818387"/>
<path d="M165.78 9.21707C165.78 8.24476 166.297 5.47659 165.379 5.01092C164.7 4.66597 162.348 5.56283 163.057 3.76912C163.458 2.75585 165.564 3.24308 166.489 3.24308C167.511 3.24308 170.476 2.63512 170.747 3.93943C171.135 5.79351 168.697 4.44176 168.059 5.13596C167.712 5.51324 167.912 6.63646 167.912 7.09351C167.912 8.05504 167.908 9.01657 167.906 9.98026C167.901 11.0927 168.514 13.6841 166.78 13.5806C165.09 13.4793 165.782 10.3964 165.782 9.21923L165.78 9.21707Z" fill="#818387"/>
<path d="M56.5924 8.32471C56.5924 7.45803 56.5924 6.59352 56.5924 5.72685C56.5924 5.21374 56.3768 4.08837 56.6333 3.64209C56.9265 3.1333 58.026 2.9673 58.4917 3.40063C59.1256 3.98919 58.6858 6.72072 58.6879 7.50115C58.6901 8.46915 58.2201 11.2244 59.1191 11.7181C59.8887 12.1406 61.538 11.2093 62.0942 12.0415C62.23 12.2463 62.1999 13.0375 62.0425 13.2445C61.7083 13.6843 60.9042 13.4989 60.4105 13.4989C59.4683 13.501 57.2564 14.0055 56.7045 13.0612C56.4113 12.5567 56.5945 11.5564 56.5945 10.9829C56.5945 10.0969 56.5945 9.21078 56.5945 8.32255L56.5924 8.32471Z" fill="#818387"/>
<path d="M13.8345 25.8994C13.8345 25.1038 13.3645 22.2559 14.16 21.8614C15.3156 21.2879 16.0788 24.6662 16.3331 25.341C16.6307 26.1236 16.8678 27.3761 17.3421 28.0596C17.8207 28.7495 17.8423 28.3161 18.1721 27.5594C18.8663 25.9683 19.2652 24.2027 20.0542 22.6569C20.2698 22.2343 20.6191 21.5682 21.2357 21.857C21.766 22.105 21.5871 22.8099 21.5871 23.3015C21.5871 25.1211 21.6151 26.9428 21.5849 28.7624C21.5785 29.1634 21.7143 30.0106 21.0567 29.8576C20.5954 29.7498 20.7937 28.549 20.7915 28.1932C20.7915 27.2662 20.7915 26.337 20.7915 25.41C20.7915 24.8925 20.9877 23.8491 20.5932 23.4653C19.8925 24.3644 19.5756 25.9899 19.1509 27.0484C18.8987 27.678 18.4028 29.8662 17.6461 29.8899C16.5897 29.9223 15.3544 24.3988 14.768 23.4955C13.9703 25.2267 15.1345 27.568 14.602 29.3574C14.3476 30.2111 13.9164 29.8576 13.8366 29.1052C13.7267 28.066 13.8366 26.945 13.8366 25.8994H13.8345Z" fill="#818387"/>
<path d="M161.602 26.9276C161.602 26.0458 161.337 24.6962 161.904 23.9934C162.831 24.7911 162.382 24.3836 163.523 24.0063C163.876 23.8899 164.34 23.8533 164.706 23.9417C165.071 24.0279 165.599 24.6768 165.855 24.6876C166.203 24.7027 166.349 24.3621 166.636 24.1961C167.048 23.9568 167.457 23.8878 167.927 23.905C168.731 23.933 169.361 24.2952 169.635 25.0757C169.997 26.1083 169.76 27.7813 169.738 28.8679C169.725 29.4759 169.587 30.3274 168.982 29.5319C168.544 28.9541 169.014 26.8737 168.953 26.0738C168.882 25.1382 168.557 24.2952 167.408 24.4849C166.272 24.6725 166.144 25.7656 166.127 26.7055C166.114 27.3523 166.472 29.1482 166.106 29.6397C165.168 30.9052 165.291 27.9495 165.291 27.7102C165.291 26.9362 165.56 25.3279 164.883 24.7523C164.239 24.2047 163.271 24.5238 162.82 25.1468C162.242 25.9466 162.469 27.2014 162.458 28.1435C162.453 28.5876 162.719 30.1701 161.785 29.8467C161.283 29.672 161.6 27.3437 161.6 26.9254L161.602 26.9276Z" fill="#818387"/>
<path d="M111.32 25.8776C111.32 24.9419 110.992 23.2323 111.32 22.3764C111.786 21.1605 112.519 22.3915 112.993 23.0771C113.655 24.0321 114.317 24.9894 114.972 25.9487C115.498 26.7184 115.972 27.7338 116.761 28.2469C116.91 27.4945 116.41 22.2298 117.007 22.0099C117.762 21.7318 117.522 23.2129 117.522 23.6398C117.522 24.7802 117.522 25.9207 117.522 27.0612C117.522 27.5894 117.844 29.6008 117.283 29.8703C116.572 30.2131 115.875 28.6846 115.608 28.2965C115.063 27.5074 114.515 26.7205 113.972 25.9315C113.435 25.1511 112.896 24.0041 112.096 23.4802C111.805 24.4827 111.986 25.6814 111.986 26.7249C111.986 27.3177 112.279 29.0252 111.964 29.5189C111.607 30.0794 111.529 29.9005 111.322 29.3831C110.986 28.5488 111.322 26.8003 111.322 25.8819L111.32 25.8776Z" fill="#818387"/>
<path d="M131.102 27.2405C131.102 28.7044 131.508 30.9098 130.052 31.852C129.158 32.4319 127.021 32.4125 126.415 31.354C126.111 30.8214 126.116 30.3967 126.771 30.5843C127.254 30.7223 127.552 31.451 128.17 31.5846C129.764 31.9296 130.466 30.4226 130.275 29.0881C128.88 29.903 127.237 30.3083 126.254 28.6095C125.46 27.2383 125.726 25.035 127.17 24.1877C127.726 23.8622 128.563 23.7566 129.175 23.9829C129.77 24.2007 129.861 24.5887 130.348 24.4421C130.546 24.3818 130.268 24.0067 130.678 23.9765C131.042 23.9484 131.014 24.33 131.096 24.5456C131.352 25.2269 131.109 26.5161 131.109 27.2383H131.102V27.2405ZM130.393 26.6843C130.037 25.5503 129.563 24.164 128.063 24.5392C126.84 24.8431 126.484 26.376 126.672 27.469C126.853 28.5189 127.638 29.3964 128.787 29.1808C129.958 28.9609 130.307 27.7126 130.391 26.6843H130.393Z" fill="#818387"/>
<path d="M43.6915 26.958C43.6915 26.087 43.4069 24.6598 44.0041 23.9914C44.8751 24.9422 44.5452 24.2221 45.7353 23.9397C46.1104 23.8492 46.5804 23.888 46.9383 24.013C47.1905 24.1014 47.6928 24.6274 47.9127 24.6576C48.2814 24.7051 48.5509 24.2329 48.8764 24.0863C49.2968 23.8966 49.7323 23.8513 50.1894 23.9225C51.0625 24.0583 51.5088 24.6447 51.7007 25.479C51.94 26.5138 51.8882 27.9842 51.7718 29.0255C51.6877 29.78 51.3967 30.1789 50.959 29.4092C50.2885 28.2256 52.1017 24.3536 49.5814 24.4851C47.0698 24.6167 48.7471 28.1804 48.0938 29.4696C47.6497 30.347 47.3371 29.4868 47.3156 28.8918C47.2789 27.8742 47.6001 26.3522 47.266 25.3712C47.0202 24.6468 46.2721 24.2868 45.5456 24.5606C44.4353 24.9788 44.3577 26.3198 44.334 27.3029C44.3232 27.7082 44.6466 29.9008 44.0278 29.8771C43.3918 29.8533 43.6958 27.3848 43.6958 26.9623H43.6937L43.6915 26.958Z" fill="#818387"/>
<path d="M145.959 25.8262C145.933 23.914 147.056 22.0189 149.063 21.6869C149.982 21.5338 151.057 21.7516 151.812 22.2992C152.148 22.5428 153.435 23.8126 152.784 24.2503C152.217 24.6319 151.7 23.2715 151.394 22.9999C150.74 22.4178 149.829 22.1892 148.979 22.4048C146.998 22.9072 146.521 25.1816 146.89 26.9387C147.254 28.6634 148.927 29.9052 150.697 29.2153C151.633 28.8488 151.687 28.2214 152.168 27.4518C152.607 26.749 153.133 26.6951 152.98 27.7083C152.694 29.5991 150.376 30.3364 148.776 29.9505C146.862 29.4891 145.926 27.7127 145.957 25.8306L145.959 25.8262Z" fill="#818387"/>
<path d="M8.23127 29.8856C7.41418 29.9287 7.4228 27.7965 6.73076 27.4494C6.24999 27.2101 3.97337 27.1929 3.48829 27.4451C2.74666 27.8267 2.94931 29.9481 1.92526 29.8813C1.24831 29.836 2.71863 26.8609 2.90835 26.3909C3.17137 25.7398 3.43655 25.0909 3.69526 24.4376C3.92162 23.8642 4.11997 22.7474 4.52743 22.2947C5.46525 21.2577 5.7951 22.4025 6.14867 23.295C6.64884 24.5605 7.13607 25.8325 7.62977 27.1023C7.79362 27.5206 9.10872 29.9115 8.23127 29.8834V29.8856ZM5.02544 26.7466C6.5432 26.7466 6.60141 26.6733 6.10339 25.2849C5.99129 24.9701 5.58598 22.9652 5.05778 23.0492C4.6805 23.1096 3.94103 25.5026 3.86773 25.8023C3.61118 26.8609 3.97983 26.7488 5.02329 26.7488L5.02544 26.7466Z" fill="#818387"/>
<path d="M65.2311 25.9253C65.2311 26.9968 65.6278 29.0125 64.9594 29.8727C64.0367 29.1527 64.5261 29.4653 63.4352 29.8835C62.6634 30.1789 61.4927 30.0452 60.8675 29.5105C59.5158 28.355 59.5503 25.5803 60.9085 24.442C61.5617 23.8944 62.6138 23.7241 63.4093 24.0238C64.3364 24.373 64.5369 25.0974 64.5778 23.7651C64.5843 23.5365 64.511 21.0271 65.2052 22.2171C65.354 22.4737 65.2289 23.4913 65.2289 23.7737C65.2289 24.4916 65.2289 25.2074 65.2289 25.9253H65.2311ZM64.5778 27.0787C64.5649 24.069 60.7339 23.5797 60.6347 26.8329C60.5355 30.0193 64.2566 30.1853 64.5778 27.0787Z" fill="#818387"/>
<path d="M171.687 28.038C171.687 27.0851 171.362 25.3475 171.719 24.4873C172.043 23.709 172.22 24.1919 172.424 24.8257C176.508 21.4086 178.916 28.8443 175.283 29.9223C174.468 30.1637 173.85 29.9352 173.114 29.6636C172.81 29.5515 172.804 29.269 172.461 29.4178C172.243 29.5148 172.379 30.5712 172.373 30.7825C172.36 31.3322 172.271 32.6775 171.696 31.6491C171.306 30.9506 171.687 28.8185 171.687 28.0402H171.685L171.687 28.038ZM174.335 24.5023C171.845 24.1121 171.676 29.4005 174.38 29.435C177.122 29.4717 176.915 24.2285 174.335 24.5023Z" fill="#818387"/>
<path d="M56.3552 27.195C55.8723 27.195 54.4343 26.9233 54.2015 27.4494C53.9428 28.0336 54.7168 28.9736 55.1803 29.215C55.743 29.5082 56.5838 29.532 57.112 29.1504C57.7587 28.6847 57.5194 28.2018 58.3624 28.0552C58.6125 29.6958 56.5191 30.2456 55.2493 29.9502C53.4469 29.532 53.0847 27.1799 53.5957 25.6492C54.1153 24.0905 56.0577 23.3359 57.4526 24.3104C58.0455 24.7243 58.4917 25.4983 58.537 26.2226C58.6254 27.6391 57.4354 27.2381 56.3552 27.2381C56.3552 27.223 56.3552 27.21 56.3552 27.195ZM56.0319 26.4512C56.0319 26.4512 56.0319 26.4512 56.0319 26.449C56.8878 26.449 57.8622 26.8091 57.6703 25.8001C57.5281 25.0477 56.6786 24.4505 55.9478 24.4871C55.3118 24.5195 54.2489 25.2137 54.2942 25.9769C54.3395 26.7422 55.4002 26.4512 56.0319 26.4512Z" fill="#818387"/>
<path d="M41.7318 27.3264C41.7318 27.9645 41.6865 28.5768 41.8504 29.1826C41.9301 29.4715 42.5165 29.4284 42.0422 29.8121C41.4774 30.2692 41.182 29.3357 40.8091 29.2969C40.4318 29.2581 39.8195 29.9264 39.3086 29.9932C37.9633 30.1678 36.5361 29.4715 36.9608 27.8912C37.3963 26.27 39.2547 26.9814 40.3434 26.3821C41.5679 25.7073 40.3951 24.403 39.2698 24.4914C38.5777 24.5453 38.3729 24.888 37.9353 25.3473C37.4933 25.8129 37.1009 26.0501 37.3165 25.1079C37.5968 23.8877 39.5285 23.6376 40.4986 23.9955C41.8676 24.5 41.7253 26.1687 41.7253 27.3285C41.7253 27.3285 41.7296 27.3285 41.7318 27.3285V27.3264ZM40.1752 26.9663C40.1666 26.9383 40.158 26.9124 40.1494 26.8844C39.5673 27.0547 38.2069 27.1841 37.8037 27.7295C37.2906 28.4237 37.8749 29.2171 38.5906 29.3874C40.365 29.8143 41.6908 26.8866 40.1752 26.9642V26.9663Z" fill="#818387"/>
<path d="M183.239 27.1711C183.239 27.7187 183.103 28.4582 183.325 28.9756C183.445 29.2559 183.997 29.4305 183.732 29.7754C183.236 30.4201 182.773 29.2947 182.534 29.258C182.139 29.1977 181.544 29.8574 181.117 29.9673C179.893 30.2842 178.243 29.6547 178.442 28.1693C178.674 26.4101 180.649 26.8736 181.807 26.3993C182.9 25.9509 182.391 24.6811 181.326 24.5C180.757 24.4029 180.246 24.556 179.834 24.9333C179.64 25.1122 179.168 26.3368 178.763 25.69C178.519 25.3041 179.172 24.569 179.407 24.3749C179.949 23.9308 180.593 23.8834 181.274 23.92C183.284 24.0278 183.191 25.5154 183.191 27.1711C183.206 27.1711 183.221 27.1711 183.239 27.1711ZM180.554 29.4283C181.279 29.396 181.958 29.1201 182.283 28.4431C182.65 27.6778 182.562 27.0288 181.697 26.9663C181.076 26.9232 179.593 27.2552 179.313 27.9063C178.937 28.7773 179.78 29.4305 180.554 29.4283Z" fill="#818387"/>
<path d="M124.109 27.1412C124.109 27.8074 123.999 28.5275 124.242 29.1462C124.354 29.433 124.982 29.4545 124.449 29.834C123.852 30.2565 123.667 29.2303 123.317 29.2281C123.046 29.2281 122.72 29.7003 122.472 29.8102C122.143 29.959 121.834 30.0323 121.472 30.0431C120.275 30.0819 119.219 29.4847 119.366 28.1718C119.547 26.5505 121.384 26.7036 122.593 26.4125C123.854 26.1086 123.421 24.7137 122.255 24.4809C121.726 24.3752 121.157 24.5326 120.769 24.9077C120.53 25.1384 120.275 26.0676 119.823 25.7809C119.346 25.479 120.075 24.5498 120.321 24.3493C120.851 23.916 121.575 23.8815 122.233 23.9139C124.182 24.013 124.029 25.5696 124.156 27.1391L124.109 27.1434V27.1412ZM122.701 26.9688C121.985 26.8761 120.353 27.2878 120.101 28.0683C119.851 28.8444 120.687 29.3877 121.375 29.4222C122.85 29.4976 124.294 26.8588 122.701 26.9688Z" fill="#818387"/>
<path d="M159.991 27.0807C160.539 30.998 153.94 30.8794 154.472 26.5159C154.934 22.7258 159.989 23.3898 159.991 27.0807ZM155.175 27.0937C155.475 28.2277 155.822 29.435 157.251 29.4285C158.476 29.422 159.127 28.3118 159.183 27.2079C159.245 25.9467 158.586 24.3578 157.068 24.4937C155.742 24.6122 155.287 25.9812 155.175 27.0937Z" fill="#818387"/>
<path d="M30.5448 25.8971C30.5448 25.3214 30.2214 21.665 31.0083 21.9237C31.3986 22.0531 31.0989 23.5687 31.1636 23.9136C31.3468 24.8946 31.3145 24.5043 32.0626 24.1292C36.3399 21.9863 35.3503 29.8208 34.9666 29.8488C34.0632 29.9135 34.6583 26.1795 34.3543 25.4314C33.8045 24.0839 32.2156 24.2931 31.5236 25.3926C31.1312 26.0156 31.1614 26.7184 31.1571 27.4277C31.1571 27.8762 31.3684 29.34 31.0665 29.7022C30.5793 30.2886 30.5513 29.0921 30.5427 28.9088C30.4909 27.9128 30.5427 26.8931 30.5427 25.8971H30.5448Z" fill="#818387"/>
<path d="M133.066 25.8798C133.066 25.3128 132.706 22.26 133.25 21.9884C133.927 21.6499 133.679 24.2435 133.776 24.6401C134.765 24.2197 135.587 23.5428 136.742 24.071C137.922 24.6121 137.712 26.0479 137.74 27.1324C137.749 27.4838 138.137 30.0342 137.365 29.8768C136.665 29.7345 137.137 26.74 137.046 26.1234C136.88 24.9915 136.039 24.0451 134.845 24.6746C133.871 25.1899 133.702 26.2226 133.677 27.2186C133.664 27.6972 134.011 29.9954 133.241 29.7798C132.786 29.6526 133.066 26.3627 133.066 25.8776V25.8798Z" fill="#818387"/>
<path d="M77.1769 26.8952C77.5822 25.2006 78.3066 23.5923 80.387 23.9049C82.1441 24.1679 82.9439 25.9401 82.668 27.5743C82.4006 29.1632 81.258 30.1527 79.6152 29.9953C77.9595 29.838 77.2373 28.4194 77.1747 26.893L77.1769 26.8952ZM81.9544 26.9728C81.9544 24.114 78.354 23.6484 77.9854 26.5998C77.5822 29.8466 81.9026 30.3726 81.9544 26.9728Z" fill="#818387"/>
<path d="M26.1144 23.9096C29.6113 23.4655 29.8528 30.2479 25.8751 29.9827C22.3244 29.7456 22.624 23.487 26.1144 23.9096ZM28.0806 27.0076C28.2057 23.8492 23.9542 23.8147 24.0663 27.0141C24.1741 30.0884 28.1927 30.1035 28.0806 27.0076Z" fill="#818387"/>
<path d="M93.1499 23.9245C93.8441 23.8081 94.6871 24.1919 95.004 24.8322C95.2541 25.3366 95.2088 25.9295 94.5815 25.5889C94.105 25.3302 94.0985 24.7028 93.4 24.526C92.8244 24.3794 91.9793 24.5325 91.7831 25.19C91.3045 26.7897 94.4413 26.4857 95.1377 27.333C96.248 28.6826 94.7453 29.9266 93.4345 30.0451C92.7317 30.1098 91.8284 29.9632 91.3131 29.435C91.0264 29.1397 90.4637 28.0854 91.2118 28.0897C91.6063 28.0897 91.7206 28.8421 91.9793 29.0664C92.5053 29.5299 93.745 29.5665 94.2883 29.1483C96.1359 27.7232 92.4407 27.1907 91.809 26.8372C89.9937 25.8174 91.4619 23.7973 93.1521 23.9224L93.1499 23.9245Z" fill="#818387"/>
<path d="M73.3502 28.081C73.3502 27.1841 73.3394 26.5309 72.8823 25.7591C72.4943 25.1037 72.0135 24.4893 71.591 23.8533C71.3926 23.5536 70.5885 22.7387 70.5755 22.3743C70.5238 20.96 72.0178 23.1353 72.2205 23.448C72.518 23.9072 73.016 25.1188 73.4882 25.4228C74.0702 25.7979 74.15 25.3301 74.5445 24.7264C74.8615 24.2392 76.1528 21.5702 76.8837 21.8741C77.4615 22.1156 75.5686 24.5237 75.2948 24.942C74.9908 25.4077 74.5381 25.9057 74.329 26.4188C74.0314 27.1475 74.1888 28.0594 74.1716 28.8399C74.1629 29.2042 74.2513 30.1334 73.5679 29.8682C73.1454 29.7044 73.3545 28.4065 73.3545 28.0788L73.3502 28.081Z" fill="#818387"/>
<path d="M101.855 26.9836C101.855 27.639 102.078 28.7536 101.847 29.3788C101.614 30.0148 101.696 29.6871 101.252 29.672C101.157 29.6677 101.105 29.3896 100.933 29.3831C100.747 29.3745 100.605 29.6117 100.446 29.6612C99.6996 29.8941 99.2792 30.1679 98.4664 29.9458C96.9012 29.5168 97.1341 28.0659 97.1297 26.7292C97.1297 26.3347 96.8818 24.4526 97.1793 24.1702C97.7183 23.6592 97.8067 24.4052 97.8563 24.7868C98.0137 25.9617 97.3561 28.0077 98.1883 28.98C98.9795 29.9006 100.351 29.4176 100.784 28.4669C101.062 27.8568 101.12 27.0979 101.144 26.4403C101.163 25.91 100.883 24.7825 101.222 24.3534C102.112 23.2216 101.858 26.505 101.858 26.9836H101.855Z" fill="#818387"/>
<path d="M192.47 32.089C191.092 31.9144 193.171 31.0391 193.371 30.6122C193.908 29.4696 192.664 27.6328 192.254 26.5656C192.076 26.0999 190.868 23.1075 192.106 24.3364C193.177 25.4014 192.899 27.6026 193.945 28.6892C194.79 27.6263 194.87 25.9361 195.475 24.7266C196.131 23.418 196.42 24.3213 196.01 25.3777C195.493 26.7187 194.96 28.0532 194.477 29.4049C194.143 30.3384 193.761 32.1494 192.466 32.089H192.47Z" fill="#818387"/>
<path d="M189.976 27.4407C189.976 27.8912 190.237 29.381 189.874 29.7173C189.426 30.1334 189.376 29.5039 189.305 29.2107C188.997 27.902 189.857 26.0372 188.805 24.9139C188.022 24.0796 186.802 24.5216 186.263 25.4076C185.914 25.9854 185.959 26.6473 185.957 27.2984C185.957 27.749 186.196 29.2279 185.933 29.5707C185.03 30.7586 185.224 27.6519 185.224 27.2294C185.224 26.4813 185.043 25.4163 185.224 24.6854C185.397 23.9912 185.353 24.1508 185.841 24.1831C185.992 24.1939 185.996 24.5496 186.209 24.5776C186.339 24.5949 186.677 24.2068 186.796 24.1551C187.341 23.9136 188.029 23.8015 188.617 23.9675C190.23 24.4202 189.961 26.1277 189.961 27.4407H189.973H189.976Z" fill="#818387"/>
<path d="M89.0602 26.9836C89.0602 27.6433 89.2629 28.6867 89.0516 29.3227C88.8252 29.9997 88.8489 29.603 88.4415 29.5943C88.3617 29.5943 88.3294 29.3119 88.1612 29.3055C88.0017 29.299 87.536 29.7862 87.3441 29.8617C86.7857 30.0794 85.9406 30.1161 85.3844 29.866C84.0262 29.2559 84.4552 26.9275 84.4444 25.731C84.4423 25.4162 84.2375 24.155 84.6686 24.0429C85.2658 23.8877 85.0998 24.8363 85.102 25.1618C85.1063 26.2074 84.7506 27.9602 85.3887 28.8807C85.9751 29.7259 87.2881 29.5512 87.8982 28.8204C88.9546 27.557 87.8939 25.8431 88.4307 24.4956C89.0624 22.9089 89.0624 26.5826 89.0624 26.9836H89.0602Z" fill="#818387"/>
<path d="M104.208 27.3654C104.208 26.7445 104.335 25.9813 104.203 25.3755C104.057 24.6899 103.929 25.0651 103.567 24.6576C102.972 23.9914 103.919 24.0798 104.203 23.3856C104.43 22.8315 104.203 22.4262 104.8 22.0511C105.063 21.8873 105.93 21.6631 106.092 22.0791C106.258 22.5103 104.936 22.5944 104.889 23.2886C104.826 24.2113 106.605 23.8923 105.736 24.6511C105.568 24.7977 105.186 24.636 104.997 24.8322C104.781 25.0543 104.906 25.7636 104.906 26.0201C104.906 26.5138 105.163 29.7218 104.714 29.8123C103.832 29.9891 104.197 27.8419 104.197 27.3676C104.199 27.3676 104.203 27.3676 104.205 27.3676L104.208 27.3654Z" fill="#818387"/>
<path d="M140.461 26.9514C140.461 27.4235 140.813 30.1292 139.931 29.7842C139.398 29.5751 139.739 27.4322 139.739 27.0074C139.739 26.5224 139.398 24.3729 139.976 24.0625C140.7 23.6723 140.461 26.6086 140.461 26.9535V26.9514Z" fill="#818387"/>
</g>
<defs>
<clipPath id="clip0_1565_866">
<rect width="196.9" height="32" fill="white" transform="translate(0.549805 0.233398)"/>
</clipPath>
</defs>
</svg>
